:SAMPLES-PER-SECOND 30
:FULLY-SPECIFIED
:DEGREES
30
root  -38.2238 34.1498 10.9532 -152.496 74.4787 -158.698
RightUpLeg  -17.8153 2.81804 4.84924
RightLeg  18.2865 4.46713 1.16157
RightFoot  3.07392 0.0106726 0.232798
RightToes  -24.6557 -0.108904 -0.213161
Spine  -0.619203 -2.32087 4.16592
Spine1  -1.19156 -4.47943 8.36601
HEad  -72.0852 22.8758 -2.83502
LeftShoulder1  -1.94126e-019 -3.10601e-018 -2.51263e-017
LeftArm  -9.96938 12.5769 -76.5221
LeftForeArm  34.6923 -29.3204 -4.64753
LeftHand  -0.491579 -2.6354 7.33143
RightShoulder  -4.96962e-017 0 -2.36833e-017
RightArm  -87.6542 -14.4355 36.7026
RightForeArm  141.502 79.6054 119.958
RightHand  0.0267224 -5.7723 -13.4879
LeftUpLeg  -27.2342 24.0666 -0.204913
LeftLeg  71.9054 7.13726 17.2561
LeftFoot  16.3616 -0.780619 5.5876
LeftToes  -29.3223 1.87998e-006 4.79886e-008
31
root  -37.2962 34.3407 10.1705 -151.987 76.2354 -158.104
RightUpLeg  -14.7274 3.56211 3.56811
RightLeg  15.6539 5.29089 1.12025
RightFoot  3.21792 0.00897407 0.27892
RightToes  -25.3561 -0.113285 -0.21843
Spine  -0.626882 -2.32444 4.10376
Spine1  -1.21219 -4.51942 8.24225
HEad  -71.6052 24.2945 -3.23721
LeftShoulder1  -1.94126e-019 -3.10601e-018 -2.51263e-017
LeftArm  -10.3599 13.0039 -76.7868
LeftForeArm  33.5751 -29.9098 -4.7334
LeftHand  -0.487309 -2.5348 7.3549
RightShoulder  -4.96962e-017 0 -2.36833e-017
RightArm  -89.3641 -14.2782 34.0088
RightForeArm  149.855 78.3106 129.472
RightHand  0.133613 -6.51493 -15.5553
LeftUpLeg  -30.534 26.3014 -1.12027
LeftLeg  70.1861 6.70478 15.0144
LeftFoot  17.0758 -0.737698 5.07243
LeftToes  -32.2558 1.87998e-006 4.79886e-008
32
root  -36.3891 34.4791 9.38508 -151.269 77.7064 -157.401
RightUpLeg  -11.7063 3.76704 2.35684
RightLeg  12.7513 6.27898 1.00122
RightFoot  3.59204 0.00447519 0.363456
RightToes  -26.4568 -0.120299 -0.226602
Spine  -0.681231 -2.40382 4.0224
Spine1  -1.32969 -4.71902 8.09054
HEad  -71.2312 25.8557 -3.56535
LeftShoulder1  -1.94126e-019 -3.10601e-018 -2.51263e-017
LeftArm  -10.7425 13.635 -76.6418
LeftForeArm  32.9056 -30.4622 -4.83344
LeftHand  -0.461864 -2.57027 6.95361
RightShoulder  -4.96962e-017 0 -2.36833e-017
RightArm  -90.7697 -14.3042 31.2553
RightForeArm  156.2 77.0722 135.928
RightHand  0.232582 -7.00405 -17.7892
LeftUpLeg  -33.1069 28.5493 -1.67378
LeftLeg  66.4318 7.95682 15.0281
LeftFoot  15.1234 -0.594467 4.63748
LeftToes  -31.0834 1.87998e-006 4.79886e-008
33
root  -35.4833 34.5537 8.58152 -150.184 79.3623 -156.116
RightUpLeg  -8.81761 4.19822 1.07421
RightLeg  10.3451 7.11038 0.830044
RightFoot  3.85047 0.00107395 0.440759
RightToes  -27.412 -0.126512 -0.233583
Spine  -0.691528 -2.47031 3.84169
Spine1  -1.3606 -4.90048 7.74527
HEad  -70.8162 27.6849 -3.79465
LeftShoulder1  -1.94126e-019 -3.10601e-018 -2.51263e-017
LeftArm  -10.7121 14.4048 -75.9009
LeftForeArm  33.2223 -30.3621 -4.77183
LeftHand  -0.493165 -3.20798 6.90199
RightShoulder  -4.96962e-017 0 -2.36833e-017
RightArm  -91.9743 -14.1976 28.6356
RightForeArm  160.707 75.737 140.996
RightHand  0.398753 -7.74956 -20.1614
LeftUpLeg  -34.2301 30.8865 -1.523
LeftLeg  60.2802 9.65976 14.2642
LeftFoot  12.24 -0.390169 3.79925
LeftToes  -29.059 1.87998e-006 4.79886e-008
